<svg xmlns="http://www.w3.org/2000/svg" xmlns:xlink="http://www.w3.org/1999/xlink" id="processonSvg1000" viewBox="74.33331298828125 92.20833206176758 890.0 720.125" width="890.0" height="720.125"><defs id="ProcessOnDefs1001"><marker id="ProcessOnMarker1015" markerUnits="userSpaceOnUse" orient="auto" markerWidth="16.23606797749979" markerHeight="10.550836550532098" viewBox="-1.0 -1.3763819204711736 16.23606797749979 10.550836550532098" refX="-1.0" refY="3.8990363547948754"><path id="ProcessOnPath1016" d="M12.0 3.8990363547948754L0.0 7.798072709589751V0.0Z" stroke="#323232" stroke-width="2.0" fill="#323232" transform="matrix(1.0,0.0,0.0,1.0,0.0,0.0)"/></marker><marker id="ProcessOnMarker1022" markerUnits="userSpaceOnUse" orient="auto" markerWidth="16.23606797749979" markerHeight="10.550836550532098" viewBox="-1.0 -1.3763819204711736 16.23606797749979 10.550836550532098" refX="-1.0" refY="3.8990363547948754"><path id="ProcessOnPath1023" d="M12.0 3.8990363547948754L0.0 7.798072709589751V0.0Z" stroke="#323232" stroke-width="2.0" fill="#323232" transform="matrix(1.0,0.0,0.0,1.0,0.0,0.0)"/></marker><marker id="ProcessOnMarker1029" markerUnits="userSpaceOnUse" orient="auto" markerWidth="16.23606797749979" markerHeight="10.550836550532098" viewBox="-1.0 -1.3763819204711736 16.23606797749979 10.550836550532098" refX="-1.0" refY="3.8990363547948754"><path id="ProcessOnPath1030" d="M12.0 3.8990363547948754L0.0 7.798072709589751V0.0Z" stroke="#323232" stroke-width="2.0" fill="#323232" transform="matrix(1.0,0.0,0.0,1.0,0.0,0.0)"/></marker><marker id="ProcessOnMarker1036" markerUnits="userSpaceOnUse" orient="auto" markerWidth="16.23606797749979" markerHeight="10.550836550532098" viewBox="-1.0 -1.3763819204711736 16.23606797749979 10.550836550532098" refX="-1.0" refY="3.8990363547948754"><path id="ProcessOnPath1037" d="M12.0 3.8990363547948754L0.0 7.798072709589751V0.0Z" stroke="#323232" stroke-width="2.0" fill="#323232" transform="matrix(1.0,0.0,0.0,1.0,0.0,0.0)"/></marker><marker id="ProcessOnMarker1047" markerUnits="userSpaceOnUse" orient="auto" markerWidth="16.23606797749979" markerHeight="10.550836550532098" viewBox="-1.0 -1.3763819204711736 16.23606797749979 10.550836550532098" refX="-1.0" refY="3.8990363547948754"><path id="ProcessOnPath1048" d="M12.0 3.8990363547948754L0.0 7.798072709589751V0.0Z" stroke="#323232" stroke-width="2.0" fill="#323232" transform="matrix(1.0,0.0,0.0,1.0,0.0,0.0)"/></marker><marker id="ProcessOnMarker1059" markerUnits="userSpaceOnUse" orient="auto" markerWidth="16.23606797749979" markerHeight="10.550836550532098" viewBox="-1.0 -1.3763819204711736 16.23606797749979 10.550836550532098" refX="-1.0" refY="3.8990363547948754"><path id="ProcessOnPath1060" d="M12.0 3.8990363547948754L0.0 7.798072709589751V0.0Z" stroke="#323232" stroke-width="2.0" fill="#323232" transform="matrix(1.0,0.0,0.0,1.0,0.0,0.0)"/></marker><marker id="ProcessOnMarker1075" markerUnits="userSpaceOnUse" orient="auto" markerWidth="16.23606797749979" markerHeight="10.550836550532098" viewBox="-1.0 -1.3763819204711736 16.23606797749979 10.550836550532098" refX="-1.0" refY="3.8990363547948754"><path id="ProcessOnPath1076" d="M12.0 3.8990363547948754L0.0 7.798072709589751V0.0Z" stroke="#323232" stroke-width="2.0" fill="#323232" transform="matrix(1.0,0.0,0.0,1.0,0.0,0.0)"/></marker><marker id="ProcessOnMarker1082" markerUnits="userSpaceOnUse" orient="auto" markerWidth="16.23606797749979" markerHeight="10.550836550532098" viewBox="-1.0 -1.3763819204711736 16.23606797749979 10.550836550532098" refX="-1.0" refY="3.8990363547948754"><path id="ProcessOnPath1083" d="M12.0 3.8990363547948754L0.0 7.798072709589751V0.0Z" stroke="#323232" stroke-width="2.0" fill="#323232" transform="matrix(1.0,0.0,0.0,1.0,0.0,0.0)"/></marker><marker id="ProcessOnMarker1097" markerUnits="userSpaceOnUse" orient="auto" markerWidth="16.23606797749979" markerHeight="10.550836550532098" viewBox="-1.0 -1.3763819204711736 16.23606797749979 10.550836550532098" refX="-1.0" refY="3.8990363547948754"><path id="ProcessOnPath1098" d="M12.0 3.8990363547948754L0.0 7.798072709589751V0.0Z" stroke="#323232" stroke-width="2.0" fill="#323232" transform="matrix(1.0,0.0,0.0,1.0,0.0,0.0)"/></marker><marker id="ProcessOnMarker1104" markerUnits="userSpaceOnUse" orient="auto" markerWidth="16.23606797749979" markerHeight="10.550836550532098" viewBox="-1.0 -1.3763819204711736 16.23606797749979 10.550836550532098" refX="-1.0" refY="3.8990363547948754"><path id="ProcessOnPath1105" d="M12.0 3.8990363547948754L0.0 7.798072709589751V0.0Z" stroke="#323232" stroke-width="2.0" fill="#323232" transform="matrix(1.0,0.0,0.0,1.0,0.0,0.0)"/></marker></defs><g id="ProcessOnG1002"><path id="ProcessOnPath1003" d="M74.33331298828125 92.20833206176758H964.3333129882812V812.3333320617676H74.33331298828125V92.20833206176758Z" fill="none"/><g id="ProcessOnG1004"><g id="ProcessOnG1005" transform="matrix(1.0,0.0,0.0,1.0,94.33331298828125,160.33333206176758)" opacity="1.0"><path id="ProcessOnPath1006" d="M16.666666666666668 0.0L83.33333333333333 0.0C105.55555555555556 0.0 105.55555555555556 50.0 83.33333333333333 50.0L16.666666666666668 50.0C-5.555555555555556 50.0 -5.555555555555556 0.0 16.666666666666668 0.0Z" stroke="#323232" stroke-width="2.0" stroke-dasharray="none" fill="#6ed464"/><g id="ProcessOnG1007" transform="matrix(1.0,0.0,0.0,1.0,10.0,16.875)"><text id="ProcessOnText1008" fill="#323232" font-size="13" x="39.0" y="13.325" font-family="Arial" font-weight="normal" font-style="normal" text-decoration="none" family="Arial" text-anchor="middle" size="13">请求</text></g></g><g id="ProcessOnG1009" transform="matrix(1.0,0.0,0.0,1.0,354.33331298828125,150.33333206176758)" opacity="1.0"><path id="ProcessOnPath1010" d="M0.0 35.0L45.0 0.0L90.0 35.0L45.0 70.0L0.0 35.0Z" stroke="#323232" stroke-width="2.0" stroke-dasharray="none" fill="#6ed464"/><g id="ProcessOnG1011" transform="matrix(1.0,0.0,0.0,1.0,10.0,26.875)"><text id="ProcessOnText1012" fill="#323232" font-size="13" x="34.0" y="13.325" font-family="Arial" font-weight="normal" font-style="normal" text-decoration="none" family="Arial" text-anchor="middle" size="13">DNS</text></g></g><g id="ProcessOnG1013"><path id="ProcessOnPath1014" d="M194.33331298828125 185.33333206176758L274.33331298828125 185.33333206176758L274.33331298828125 185.33333206176758L339.0972450107815 185.33333206176758" stroke="#323232" stroke-width="2.0" stroke-dasharray="none" fill="none" marker-end="url(#ProcessOnMarker1015)"/><g id="ProcessOnG1017" transform="matrix(1.0,0.0,0.0,1.0,266.7152789995314,177.20833206176758)"><path id="ProcessOnPath1018" d="M0 0H27.0V16.25H0Z" fill="#fff" transform="matrix(1.0,0.0,0.0,1.0,-13.5,0.0)"/><text id="ProcessOnText1019" fill="#323232" font-size="13" x="0.0" y="13.325" font-family="Arial" font-weight="normal" font-style="normal" text-decoration="none" family="Arial" text-anchor="middle" size="13">www</text></g></g><g id="ProcessOnG1020"><path id="ProcessOnPath1021" d="M399.33331298828125 220.33333206176758L399.33331298828125 372.8333320617676L399.33331298828125 372.8333320617676L399.33331298828125 510.0972640842678" stroke="#323232" stroke-width="2.0" stroke-dasharray="none" fill="none" marker-end="url(#ProcessOnMarker1022)"/><g id="ProcessOnG1024" transform="matrix(1.0,0.0,0.0,1.0,399.33331298828125,357.0902980730177)"><path id="ProcessOnPath1025" d="M0 0H20.0V16.25H0Z" fill="#fff" transform="matrix(1.0,0.0,0.0,1.0,-10.0,0.0)"/><text id="ProcessOnText1026" fill="#323232" font-size="13" x="0.0" y="13.325" font-family="Arial" font-weight="normal" font-style="normal" text-decoration="none" family="Arial" text-anchor="middle" size="13">蜘蛛</text></g></g><g id="ProcessOnG1027"><path id="ProcessOnPath1028" d="M444.33331298828125 185.33333206176758L538.8333129882812 185.33333206176758L538.8333129882812 185.33333206176758L618.0972450107814 185.33333206176758" stroke="#323232" stroke-width="2.0" stroke-dasharray="none" fill="none" marker-end="url(#ProcessOnMarker1029)"/><g id="ProcessOnG1031" transform="matrix(1.0,0.0,0.0,1.0,531.2152789995314,177.20833206176758)"><path id="ProcessOnPath1032" d="M0 0H20.0V16.25H0Z" fill="#fff" transform="matrix(1.0,0.0,0.0,1.0,-10.0,0.0)"/><text id="ProcessOnText1033" fill="#323232" font-size="13" x="0.0" y="13.325" font-family="Arial" font-weight="normal" font-style="normal" text-decoration="none" family="Arial" text-anchor="middle" size="13">用户</text></g></g><g id="ProcessOnG1034"><path id="ProcessOnPath1035" d="M144.33331298828125 210.33333206176758L144.33331298828125 576.8333320617676L323.0972450107815 576.8333320617676" stroke="#323232" stroke-width="2.0" stroke-dasharray="none" fill="none" marker-end="url(#ProcessOnMarker1036)"/><g id="ProcessOnG1038" transform="matrix(1.0,0.0,0.0,1.0,144.33331298828125,474.8402980730177)"><path id="ProcessOnPath1039" d="M0 0H28.0V16.25H0Z" fill="#fff" transform="matrix(1.0,0.0,0.0,1.0,-14.0,0.0)"/><text id="ProcessOnText1040" fill="#323232" font-size="13" x="0.0" y="13.325" font-family="Arial" font-weight="normal" font-style="normal" text-decoration="none" family="Arial" text-anchor="middle" size="13">apps</text></g></g><g id="ProcessOnG1041" transform="matrix(1.0,0.0,0.0,1.0,338.33331298828125,525.3333320617676)" opacity="1.0"><path id="ProcessOnPath1042" d="M0.0 51.5L61.0 0.0L122.0 51.5L61.0 103.0L0.0 51.5Z" stroke="#323232" stroke-width="2.0" stroke-dasharray="none" fill="#6ed464"/><g id="ProcessOnG1043" transform="matrix(1.0,0.0,0.0,1.0,10.0,43.375)"><text id="ProcessOnText1044" fill="#323232" font-size="13" x="50.0" y="13.325" font-family="Arial" font-weight="normal" font-style="normal" text-decoration="none" family="Arial" text-anchor="middle" size="13">反向代理</text></g></g><g id="ProcessOnG1045"><path id="ProcessOnPath1046" d="M399.33331298828125 628.3333320617676L399.33331298828125 672.8333320617676L399.33331298828125 672.8333320617676L399.33331298828125 702.0972640842677" stroke="#323232" stroke-width="2.0" stroke-dasharray="none" fill="none" marker-end="url(#ProcessOnMarker1047)"/><g id="ProcessOnG1049" transform="matrix(1.0,0.0,0.0,1.0,399.33331298828125,657.0902980730177)"><path id="ProcessOnPath1050" d="M0 0H27.0V16.25H0Z" fill="#fff" transform="matrix(1.0,0.0,0.0,1.0,-13.5,0.0)"/><text id="ProcessOnText1051" fill="#323232" font-size="13" x="0.0" y="13.325" font-family="Arial" font-weight="normal" font-style="normal" text-decoration="none" family="Arial" text-anchor="middle" size="13">www</text></g></g><g id="ProcessOnG1052" transform="matrix(1.0,0.0,0.0,1.0,349.33331298828125,717.3333320617676)" opacity="1.0"><path id="ProcessOnPath1053" d="M0.0 0.0L100.0 0.0L100.0 70.0L0.0 70.0Z" stroke="#323232" stroke-width="2.0" stroke-dasharray="none" fill="#6ed464"/><g id="ProcessOnG1054" transform="matrix(1.0,0.0,0.0,1.0,10.0,18.75)"><text id="ProcessOnText1055" fill="#323232" font-size="13" x="39.0" y="13.325" font-family="Arial" font-weight="normal" font-style="normal" text-decoration="none" family="Arial" text-anchor="middle" size="13">SSR 渲染</text><text id="ProcessOnText1056" fill="#323232" font-size="13" x="39.0" y="29.575" font-family="Arial" font-weight="normal" font-style="normal" text-decoration="none" family="Arial" text-anchor="middle" size="13">Nuxt  </text></g></g><g id="ProcessOnG1057"><path id="ProcessOnPath1058" d="M460.33331298828125 576.8333320617676L706.3333129882812 576.8333320617676L706.3333129882812 707.0972640842677" stroke="#323232" stroke-width="2.0" stroke-dasharray="none" fill="none" marker-end="url(#ProcessOnMarker1059)"/><g id="ProcessOnG1061" transform="matrix(1.0,0.0,0.0,1.0,648.4652789995314,568.7083320617676)"><path id="ProcessOnPath1062" d="M0 0H28.0V16.25H0Z" fill="#fff" transform="matrix(1.0,0.0,0.0,1.0,-14.0,0.0)"/><text id="ProcessOnText1063" fill="#323232" font-size="13" x="0.0" y="13.325" font-family="Arial" font-weight="normal" font-style="normal" text-decoration="none" family="Arial" text-anchor="middle" size="13">apps</text></g></g><g id="ProcessOnG1064" transform="matrix(1.0,0.0,0.0,1.0,656.3333129882812,722.3333320617676)" opacity="1.0"><path id="ProcessOnPath1065" d="M0.0 0.0L100.0 0.0L100.0 70.0L0.0 70.0Z" stroke="#323232" stroke-width="2.0" stroke-dasharray="none" fill="#6ed464"/><g id="ProcessOnG1066" transform="matrix(1.0,0.0,0.0,1.0,10.0,18.75)"><text id="ProcessOnText1067" fill="#323232" font-size="13" x="39.0" y="13.325" font-family="Arial" font-weight="normal" font-style="normal" text-decoration="none" family="Arial" text-anchor="middle" size="13">API </text><text id="ProcessOnText1068" fill="#323232" font-size="13" x="39.0" y="29.575" font-family="Arial" font-weight="normal" font-style="normal" text-decoration="none" family="Arial" text-anchor="middle" size="13">Node.js</text></g></g><g id="ProcessOnG1069" transform="matrix(1.0,0.0,0.0,1.0,633.3333129882812,150.33333206176758)" opacity="1.0"><path id="ProcessOnPath1070" d="M0.0 35.0L45.0 0.0L90.0 35.0L45.0 70.0L0.0 35.0Z" stroke="#323232" stroke-width="2.0" stroke-dasharray="none" fill="#6ed464"/><g id="ProcessOnG1071" transform="matrix(1.0,0.0,0.0,1.0,10.0,26.875)"><text id="ProcessOnText1072" fill="#323232" font-size="13" x="34.0" y="13.325" font-family="Arial" font-weight="normal" font-style="normal" text-decoration="none" family="Arial" text-anchor="middle" size="13">CDN</text></g></g><g id="ProcessOnG1073"><path id="ProcessOnPath1074" d="M144.33331298828125 160.33333206176758L144.33331298828125 120.33333206176758L678.3333129882812 120.33333206176758L678.3333129882812 135.09726408426778" stroke="#323232" stroke-width="2.0" stroke-dasharray="none" fill="none" marker-end="url(#ProcessOnMarker1075)"/><g id="ProcessOnG1077" transform="matrix(1.0,0.0,0.0,1.0,398.71527899953134,112.20833206176758)"><path id="ProcessOnPath1078" d="M0 0H18.0V16.25H0Z" fill="#fff" transform="matrix(1.0,0.0,0.0,1.0,-9.0,0.0)"/><text id="ProcessOnText1079" fill="#323232" font-size="13" x="0.0" y="13.325" font-family="Arial" font-weight="normal" font-style="normal" text-decoration="none" family="Arial" text-anchor="middle" size="13">src</text></g></g><g id="ProcessOnG1080"><path id="ProcessOnPath1081" d="M678.3333129882812 220.33333206176758L678.3333129882812 265.99999809265137L678.3333129882812 265.99999809265137L678.3333129882812 296.4305961460354" stroke="#323232" stroke-width="2.0" stroke-dasharray="none" fill="none" marker-end="url(#ProcessOnMarker1082)"/></g><g id="ProcessOnG1084" transform="matrix(1.0,0.0,0.0,1.0,612.3333129882812,311.66666412353516)" opacity="1.0"><path id="ProcessOnPath1085" d="M0.0 0.0L132.0 0.0L132.0 74.0L0.0 74.0Z" stroke="#323232" stroke-width="2.0" stroke-dasharray="none" fill="#6ed464"/><g id="ProcessOnG1086" transform="matrix(1.0,0.0,0.0,1.0,10.0,12.625)"><text id="ProcessOnText1087" fill="#323232" font-size="13" x="55.0" y="13.325" font-family="Arial" font-weight="normal" font-style="normal" text-decoration="none" family="Arial" text-anchor="middle" size="13">www</text><text id="ProcessOnText1088" fill="#323232" font-size="13" x="55.0" y="29.575" font-family="Arial" font-weight="normal" font-style="normal" text-decoration="none" family="Arial" text-anchor="middle" size="13">前端资源文件</text><text id="ProcessOnText1089" fill="#323232" font-size="13" x="55.0" y="45.825" font-family="Arial" font-weight="normal" font-style="normal" text-decoration="none" family="Arial" text-anchor="middle" size="13">Nuxt</text></g></g><g id="ProcessOnG1090" transform="matrix(1.0,0.0,0.0,1.0,803.3333129882812,313.66666412353516)" opacity="1.0"><path id="ProcessOnPath1091" d="M0.0 0.0L141.0 0.0L141.0 77.0L0.0 77.0Z" stroke="#323232" stroke-width="2.0" stroke-dasharray="none" fill="#6ed464"/><g id="ProcessOnG1092" transform="matrix(1.0,0.0,0.0,1.0,10.0,22.25)"><text id="ProcessOnText1093" fill="#323232" font-size="13" x="59.5" y="13.325" font-family="Arial" font-weight="normal" font-style="normal" text-decoration="none" family="Arial" text-anchor="middle" size="13">src</text><text id="ProcessOnText1094" fill="#323232" font-size="13" x="59.5" y="29.575" font-family="Arial" font-weight="normal" font-style="normal" text-decoration="none" family="Arial" text-anchor="middle" size="13">云存储文件</text></g></g><g id="ProcessOnG1095"><path id="ProcessOnPath1096" d="M723.3333129882812 185.33333206176758L873.8333129882812 185.33333206176758L873.8333129882812 298.4305961460354" stroke="#323232" stroke-width="2.0" stroke-dasharray="none" fill="none" marker-end="url(#ProcessOnMarker1097)"/><g id="ProcessOnG1099" transform="matrix(1.0,0.0,0.0,1.0,855.1319450304152,177.20833206176758)"><path id="ProcessOnPath1100" d="M0 0H78.0V16.25H0Z" fill="#fff" transform="matrix(1.0,0.0,0.0,1.0,-39.0,0.0)"/><text id="ProcessOnText1101" fill="#323232" font-size="13" x="0.0" y="13.325" font-family="Arial" font-weight="normal" font-style="normal" text-decoration="none" family="Arial" text-anchor="middle" size="13">资源/Form 上传</text></g></g><g id="ProcessOnG1102"><path id="ProcessOnPath1103" d="M873.8333129882812 390.66666412353516L873.8333129882812 457.99999809265137L399.33331298828125 457.99999809265137L399.33331298828125 510.0972640842678" stroke="#323232" stroke-width="2.0" stroke-dasharray="none" fill="none" marker-end="url(#ProcessOnMarker1104)"/><g id="ProcessOnG1106" transform="matrix(1.0,0.0,0.0,1.0,644.2013469770311,449.87499809265137)"><path id="ProcessOnPath1107" d="M0 0H72.0V16.25H0Z" fill="#fff" transform="matrix(1.0,0.0,0.0,1.0,-36.0,0.0)"/><text id="ProcessOnText1108" fill="#323232" font-size="13" x="0.0" y="13.325" font-family="Arial" font-weight="normal" font-style="normal" text-decoration="none" family="Arial" text-anchor="middle" size="13">apps 异步回调</text></g></g></g></g></svg>